<svg id="Layer_1" data-name="Layer 1" xmlns="http://www.w3.org/2000/svg" viewBox="0 0 500 91.24"><defs><style>.cls-1{fill:#fb9dd2;}.cls-2{fill:#ffcb05;}.cls-3{fill:#ed1c24;}.cls-4{fill:#005be9;}</style></defs><path d="M113.06,18.17h24.08c11.5,0,17.91,7.89,17.91,17.17s-6.49,17.18-17.91,17.18H122.68V73h-9.62Zm22.76,8.46H122.68V44.05h13.14c5.43,0,9.37-3.45,9.37-8.71S141.25,26.63,135.82,26.63Z"/><path d="M194.82,62.46h-26l-4,10.52H154.31l21.53-54.81h12L209.36,73H198.84ZM171.56,54H192.1L181.83,26.31Z"/><path d="M228.5,33V73h-9.61V18.17h9.86l28,38.87V18.17h9.61V73h-9.29Z"/><path d="M280.62,65.17l28-38.54h-28V18.17h40.51V26l-28,38.53h28.6V73H280.62Z"/><path d="M333,18.17h9.7V51c0,8.71,4.84,14.38,14,14.38s14-5.67,14-14.38V18.17h9.69V51.28c0,13.64-7.81,22.68-23.66,22.68S333,64.84,333,51.37Z"/><path d="M415,52.52h-9.53V73h-9.61V18.17h24.07c10.85,0,17.91,7.07,17.91,17.17,0,9.78-6.41,15-13,16.11L438.21,73H427.12Zm3.62-25.89H405.43V44.05h13.15c5.42,0,9.36-3.45,9.36-8.71S424,26.63,418.58,26.63Z"/><path d="M485.46,62.46h-26l-4,10.52H445l21.53-54.81h12L500,73H489.48ZM462.2,54h20.55L472.47,26.31Z"/><rect class="cls-1" y="18.14" width="36.55" height="18.23"/><rect class="cls-2" x="54.87" y="54.79" width="36.65" height="18.23"/><rect x="18.32" y="73.02" width="18.23" height="18.23"/><path d="M36.55,18.14h0A18.23,18.23,0,0,0,18.32,36.37h0V54.79H36.55V18.14Z"/><rect class="cls-3" y="54.79" width="54.94" height="18.23"/><rect x="54.92" width="18.23" height="18.14"/><path d="M54.92,33.37V73h0A18.23,18.23,0,0,0,73.15,54.79h0V33.37Z"/><rect class="cls-4" x="36.55" y="18.14" width="54.97" height="18.23"/></svg>