<svg width="200px" height="43px" viewBox="0 0 200 43" version="1.1" xmlns="http://www.w3.org/2000/svg" xmlns:xlink="http://www.w3.org/1999/xlink">
    <g id="Read---Only-Screen" stroke="none" stroke-width="1" fill="none" fill-rule="evenodd">
        <g id="Panzura-DataServices" fill-rule="nonzero">
            <path d="M45.2097561,7.26829268 L54.8341463,7.26829268 C59.4341463,7.26829268 61.995122,10.4195122 61.995122,14.1317073 C61.995122,17.8439024 59.4,21 54.8341463,21 L49.0536585,21 L49.0536585,29.1804878 L45.2097561,29.1804878 L45.2097561,7.26829268 Z M54.3073171,10.6487805 L49.0536585,10.6487805 L49.0536585,17.6146341 L54.3073171,17.6146341 C56.4780488,17.6146341 58.0536585,16.2341463 58.0536585,14.1317073 C58.0536585,12.0292683 56.4780488,10.6487805 54.3073171,10.6487805 L54.3073171,10.6487805 Z" id="Shape" fill="#000000"></path>
            <path d="M77.897561,24.9756098 L67.5170732,24.9756098 L65.9073171,29.1804878 L61.702439,29.1804878 L70.3073171,7.26829268 L75.1219512,7.26829268 L83.7268293,29.1804878 L79.5121951,29.1804878 L77.897561,24.9756098 Z M68.6,21.5902439 L76.8146341,21.5902439 L72.7073171,10.5170732 L68.6,21.5902439 Z" id="Shape" fill="#000000"></path>
            <polygon id="Path" fill="#000000" points="91.3658537 13.2146341 91.3658537 29.1804878 87.5219512 29.1804878 87.5219512 7.26829268 91.4634146 7.26829268 102.682927 22.804878 102.682927 7.26829268 106.526829 7.26829268 106.526829 29.1804878 102.814634 29.1804878"></polygon>
            <polygon id="Path" fill="#000000" points="112.195122 26.0585366 123.414634 10.6487805 112.195122 10.6487805 112.195122 7.26829268 128.390244 7.26829268 128.390244 10.3853659 117.170732 25.795122 128.634146 25.795122 128.634146 29.1804878 112.195122 29.1804878"></polygon>
            <path d="M133.136585,7.26829268 L137.014634,7.26829268 L137.014634,20.4097561 C137.014634,23.8878049 138.965854,26.1560976 142.629268,26.1560976 C146.292683,26.1560976 148.214634,23.902439 148.214634,20.4097561 L148.214634,7.26829268 L152.117073,7.26829268 L152.117073,20.4878049 C152.117073,25.9414634 148.995122,29.5560976 142.653659,29.5560976 C136.312195,29.5560976 133.160976,25.9073171 133.160976,20.5219512 L133.136585,7.26829268 Z" id="Path" fill="#000000"></path>
            <path d="M165.921951,21 L162.112195,21 L162.112195,29.1804878 L158.268293,29.1804878 L158.268293,7.26829268 L167.892683,7.26829268 C172.229268,7.26829268 175.058537,10.0926829 175.058537,14.1317073 C175.058537,18.0341463 172.492683,20.1463415 169.868293,20.5707317 L175.234146,29.1804878 L170.8,29.1804878 L165.921951,21 Z M167.385366,10.6487805 L162.112195,10.6487805 L162.112195,17.6146341 L167.370732,17.6146341 C169.536585,17.6146341 171.112195,16.2341463 171.112195,14.1317073 C171.112195,12.0292683 169.536585,10.6487805 167.370732,10.6487805 L167.385366,10.6487805 Z" id="Shape" fill="#000000"></path>
            <path d="M194.112195,24.9756098 L183.731707,24.9756098 L182.121951,29.1804878 L177.912195,29.1804878 L186.521951,7.26829268 L191.317073,7.26829268 L199.926829,29.1804878 L195.721951,29.1804878 L194.112195,24.9756098 Z M184.814634,21.5902439 L193.029268,21.5902439 L188.921951,10.5170732 L184.814634,21.5902439 Z" id="Shape" fill="#000000"></path>
            <rect id="Rectangle" fill="#FD9FD4" x="0" y="7.25365854" width="14.6146341" height="7.28780488"></rect>
            <rect id="Rectangle" fill="#FFCB05" x="21.9414634" y="21.9073171" width="14.6536585" height="7.28780488"></rect>
            <rect id="Rectangle" fill="#000000" x="7.32682927" y="29.195122" width="7.28780488" height="7.28780488"></rect>
            <path d="M14.6341463,7.25359968 L14.6341463,7.25359968 C12.6962342,7.24587569 10.8350246,8.0102586 9.46195929,9.3778316 C8.08889403,10.7454046 7.31707317,12.6035356 7.31707317,14.5414634 L7.31707317,14.5414634 L7.31707317,21.9073171 L14.6341463,21.9073171 L14.6341463,7.27317073 L14.6341463,7.25359968 Z" id="Path" fill="#000000"></path>
            <rect id="Rectangle" fill="#ED1C24" x="0" y="21.9073171" width="21.9658537" height="7.28780488"></rect>
            <rect id="Rectangle" fill="#000000" x="21.9609756" y="0" width="7.28780488" height="7.25365854"></rect>
            <path d="M21.9512195,13.3414634 L21.9512195,29.1951808 L21.9512195,29.1951808 C23.8891317,29.2029048 25.7503413,28.4385219 27.1234066,27.0709489 C28.4964718,25.7033759 29.2682927,23.8452449 29.2682927,21.9073171 L29.2682927,21.9073171 L29.2682927,13.3414634 L21.9512195,13.3414634 Z" id="Path" fill="#000000"></path>
            <rect id="Rectangle" fill="#005BE9" x="14.6146341" y="7.25365854" width="21.9804878" height="7.28780488"></rect>
            <path d="M106.380488,36.5073171 C106.999142,37.1634164 107.318733,38.0462639 107.263415,38.9463415 C107.319918,39.8465891 107.000161,40.729894 106.380488,41.3853659 C105.716993,41.9899923 104.837589,42.3013013 103.941463,42.2487805 L101.814634,42.2487805 L101.814634,35.6487805 L103.941463,35.6487805 C104.836586,35.5971594 105.715065,35.906384 106.380488,36.5073171 Z M105.785366,40.8243902 C106.630251,39.7167034 106.630251,38.1808576 105.785366,37.0731707 C105.321703,36.6071964 104.680654,36.3621418 104.02439,36.4 L102.614634,36.4 L102.614634,41.497561 L104.02439,41.497561 C104.680654,41.5354192 105.321703,41.2903646 105.785366,40.8243902 L105.785366,40.8243902 Z" id="Shape" fill="#0059EF"></path>
            <path d="M114.507317,40.4195122 L111.521951,40.4195122 L110.819512,42.2487805 L109.980488,42.2487805 L112.55122,35.6487805 L113.497561,35.6487805 L116.058537,42.2487805 L115.209756,42.2487805 L114.507317,40.4195122 Z M114.219512,39.6682927 L113.326829,37.3268293 L113.019512,36.4097561 L113.019512,36.4097561 L112.726829,37.297561 L111.829268,39.6682927 L114.219512,39.6682927 Z" id="Shape" fill="#0059EF"></path>
            <polygon id="Path" fill="#0059EF" points="123.136585 36.4 120.834146 36.4 120.834146 42.2536585 120.034146 42.2536585 120.034146 36.4 117.736585 36.4 117.736585 35.6487805 123.136585 35.6487805"></polygon>
            <path d="M129.341463,40.4195122 L126.341463,40.4195122 L125.639024,42.2487805 L124.8,42.2487805 L127.370732,35.6487805 L128.317073,35.6487805 L130.878049,42.2487805 L130.029268,42.2487805 L129.341463,40.4195122 Z M129.053659,39.6682927 L128.165854,37.3268293 L127.853659,36.4097561 L127.853659,36.4097561 L127.560976,37.297561 L126.663415,39.6682927 L129.053659,39.6682927 Z" id="Shape" fill="#0059EF"></path>
            <path d="M143.902439,36.9463415 L143.214634,37.5073171 C143.067899,37.1395739 142.821202,36.8202198 142.502439,36.5853659 C141.770228,36.2036619 140.894609,36.2183473 140.17561,36.6243902 C139.904468,36.8029274 139.739896,37.1046414 139.736585,37.4292683 C139.730227,37.6194276 139.79063,37.8058143 139.907317,37.9560976 C140.062013,38.1238765 140.256684,38.2497412 140.473171,38.3219512 C140.829584,38.4485553 141.197029,38.5416414 141.570732,38.6 C142.232329,38.6683865 142.867935,38.8941939 143.42439,39.2585366 C143.790481,39.5543199 143.99197,40.0081256 143.965854,40.4780488 C143.970438,40.8285172 143.860856,41.1709602 143.653659,41.4536585 C143.422448,41.7533066 143.111324,41.9815769 142.756098,42.1121951 C141.761747,42.4715543 140.664568,42.4152887 139.712195,41.9560976 C139.264425,41.7168204 138.89265,41.3568753 138.639024,40.9170732 L139.326829,40.3560976 C139.495202,40.7337855 139.77194,41.0529676 140.121951,41.2731707 C140.5227,41.5003594 140.97866,41.6118161 141.439024,41.595122 C141.870218,41.6168481 142.299024,41.5189319 142.678049,41.3121951 C142.968228,41.1495943 143.144689,40.8398485 143.136585,40.5073171 C143.140361,40.2192702 142.987095,39.9519889 142.736585,39.8097561 C142.294798,39.575612 141.813548,39.4251181 141.317073,39.3658537 C140.651644,39.2942981 140.012003,39.0688373 139.44878,38.7073171 C139.084752,38.4176673 138.880123,37.9721933 138.897561,37.5073171 C138.898892,37.1592402 139.004211,36.8195023 139.2,36.5317073 C139.415923,36.2205005 139.712798,35.9742288 140.058537,35.8195122 C140.466243,35.6367927 140.909416,35.5468252 141.356098,35.5560976 C142.403035,35.4847975 143.396312,36.0271038 143.902439,36.9463415 Z" id="Path" fill="#0059EF"></path>
            <polygon id="Path" fill="#0059EF" points="152.42439 41.497561 152.42439 42.2487805 147.643902 42.2487805 147.643902 35.6487805 152.273171 35.6487805 152.273171 36.4 148.443902 36.4 148.443902 38.5365854 151.42439 38.5365854 151.42439 39.2878049 148.443902 39.2878049 148.443902 41.5073171"></polygon>
            <path d="M158.4,39.5121951 L156.82439,39.5121951 L156.82439,42.2536585 L156.02439,42.2536585 L156.02439,35.6487805 L158.536585,35.6487805 C159.121932,35.6200436 159.697689,35.8056041 160.156098,36.1707317 C160.554066,36.5206212 160.772761,37.0315064 160.75122,37.5609756 C160.76347,37.9865492 160.62529,38.4028177 160.360976,38.7365854 C160.086405,39.0679068 159.711396,39.3007893 159.292683,39.4 L161.15122,42.2292683 L160.2,42.2292683 L158.4,39.5121951 Z M156.82439,38.7609756 L158.536585,38.7609756 C159.468293,38.7609756 159.936585,38.3707317 159.936585,37.5853659 C159.936585,36.8 159.44878,36.404878 158.536585,36.404878 L156.84878,36.404878 L156.82439,38.7609756 Z" id="Shape" fill="#0059EF"></path>
            <polygon id="Path" fill="#0059EF" points="167.15122 42.2487805 166.239024 42.2487805 163.731707 35.6487805 164.590244 35.6487805 166.268293 40.204878 166.687805 41.5170732 167.107317 40.2195122 168.780488 35.6487805 169.639024 35.6487805"></polygon>
            <polygon id="Path" fill="#0059EF" points="173.804878 42.2487805 173.004878 42.2487805 173.004878 35.6487805 173.804878 35.6487805"></polygon>
            <path d="M182.263415,41.8731707 C181.779247,42.1983598 181.207579,42.3684992 180.62439,42.3609756 C180.063601,42.3734506 179.510151,42.2317134 179.02439,41.9512195 C178.561537,41.6708681 178.191638,41.2602461 177.960976,40.7707317 C177.460127,39.6212952 177.460127,38.3152901 177.960976,37.1658537 C178.186923,36.6681562 178.557475,36.2500108 179.02439,35.9658537 C180.018885,35.4276523 181.215325,35.4166926 182.219512,35.9365854 C182.661659,36.2035452 183.004298,36.6078599 183.195122,37.0878049 L182.404878,37.4585366 C182.280043,37.1027605 182.044016,36.7966093 181.731707,36.5853659 C181.414681,36.3791513 181.041276,36.2768485 180.663415,36.2926829 C180.24473,36.2842275 179.832162,36.3941328 179.473171,36.6097561 C179.126456,36.8302744 178.851775,37.1473452 178.682927,37.5219512 C178.488014,37.9692393 178.393121,38.4536936 178.404878,38.9414634 C178.362837,39.6421926 178.574049,40.3346915 179,40.8926829 C179.720544,41.6668876 180.88933,41.820406 181.785366,41.2585366 C182.117245,41.0172989 182.361995,40.6749915 182.482927,40.2829268 L183.282927,40.5804878 C183.09054,41.1095812 182.733109,41.5627835 182.263415,41.8731707 L182.263415,41.8731707 Z" id="Path" fill="#0059EF"></path>
            <polygon id="Path" fill="#0059EF" points="191.6 41.497561 191.6 42.2487805 186.829268 42.2487805 186.829268 35.6487805 191.458537 35.6487805 191.458537 36.4 187.629268 36.4 187.629268 38.5365854 190.609756 38.5365854 190.609756 39.2878049 187.629268 39.2878049 187.629268 41.5073171"></polygon>
            <path d="M199.868293,36.9463415 L199.17561,37.5073171 C199.027528,37.1403443 198.781092,36.8213281 198.463415,36.5853659 C198.120072,36.3830958 197.724774,36.286392 197.326829,36.3073171 C196.905034,36.2847907 196.486863,36.395734 196.131707,36.6243902 C195.862423,36.8040424 195.699784,37.1055646 195.697561,37.4292683 C195.691202,37.6194276 195.751605,37.8058143 195.868293,37.9560976 C196.022142,38.1248796 196.217093,38.2509255 196.434146,38.3219512 C196.788864,38.4486441 197.154699,38.5417359 197.526829,38.6 C198.188851,38.666504 198.824891,38.8924659 199.380488,39.2585366 C199.748402,39.5533092 199.951778,40.0072733 199.926829,40.4780488 C199.929648,40.8290185 199.818372,41.171405 199.609756,41.4536585 C199.379315,41.7520063 199.070146,41.9800821 198.717073,42.1121951 C198.289144,42.2758109 197.833663,42.3553131 197.37561,42.3463415 C196.784196,42.362969 196.198294,42.2286648 195.673171,41.9560976 C195.22446,41.7181118 194.852366,41.3578565 194.6,40.9170732 L195.287805,40.3560976 C195.45855,40.736786 195.740943,41.0566044 196.097561,41.2731707 C196.496502,41.5004424 196.950927,41.6119369 197.409756,41.595122 C197.84254,41.6172459 198.27302,41.5193328 198.653659,41.3121951 C198.943046,41.1487985 199.119211,40.8395735 199.112195,40.5073171 C199.113896,40.2198124 198.961189,39.9535059 198.712195,39.8097561 C198.269771,39.5771414 197.78881,39.4267376 197.292683,39.3658537 C196.627253,39.2942981 195.987613,39.0688373 195.42439,38.7073171 C195.060361,38.4176673 194.855733,37.9721933 194.873171,37.5073171 C194.872764,37.1597043 194.976397,36.819924 195.170732,36.5317073 C195.387425,36.2192961 195.686223,35.97283 196.034146,35.8195122 C196.441702,35.6363243 196.884982,35.5463351 197.331707,35.5560976 C198.375227,35.4886953 199.363693,36.0304509 199.868293,36.9463415 L199.868293,36.9463415 Z" id="Path" fill="#0059EF"></path>
        </g>
    </g>
</svg>