<svg width="173" height="173" viewBox="0 0 173 173" fill="none" xmlns="http://www.w3.org/2000/svg">
<path d="M86.5 173C134.273 173 173 134.273 173 86.5C173 38.7274 134.273 0 86.5 0C38.7274 0 0 38.7274 0 86.5C0 134.273 38.7274 173 86.5 173Z" fill="black"/>
<path d="M76.6087 57.0249H37.4414V76.5422H76.6087V57.0249Z" fill="#FB9DD2"/>
<path d="M135.492 96.325H96.2578V115.842H135.492V96.325Z" fill="#FFCB05"/>
<path d="M76.6091 115.842H57.0918V135.36H76.6091V115.842Z" fill="white"/>
<path d="M76.6091 57.0249C65.8547 57.0249 57.0918 65.7878 57.0918 76.6086V96.325H76.6091V76.6086V57.0249Z" fill="white"/>
<path d="M37.4414 96.325V115.842H96.3251L97.0554 96.325H37.4414Z" fill="#ED1C24"/>
<path d="M115.841 37.6404H96.3242V57.0913H115.841V37.6404Z" fill="white"/>
<path d="M96.3242 73.3557V96.325V115.842C107.079 115.842 115.841 107.079 115.841 96.325V73.3557H96.3242Z" fill="white"/>
<path d="M135.493 57.0249H76.6094V76.5422H135.493V57.0249Z" fill="#005BE9"/>
</svg>
