<?xml version="1.0" encoding="UTF-8"?>
<svg width="40px" height="40px" viewBox="0 0 40 40" version="1.1" xmlns="http://www.w3.org/2000/svg" xmlns:xlink="http://www.w3.org/1999/xlink">
    <!-- Generator: Sketch 55.2 (78181) - https://sketchapp.com -->
    <title>AWS Icon</title>
    <desc>Created with Sketch.</desc>
    <g id="Marketplace-workflow" stroke="none" stroke-width="1" fill="none" fill-rule="evenodd">
        <g id="marketplace_defaultview" transform="translate(-458.000000, -989.000000)">
            <g id="analytics_modules" transform="translate(440.000000, 765.000000)">
                <g id="aws_card" transform="translate(0.000000, 212.000000)">
                    <g id="AWS-Icon" transform="translate(18.000000, 12.000000)">
                        <g id="Group">
                            <circle id="Oval" stroke="#D9E3E7" stroke-width="0.5" fill="#FFFFFF" cx="20" cy="20" r="19.75"></circle>
                            <g id="amazon-web-services-aws-seeklogo.com" transform="translate(7.000000, 14.000000)">
                                <path d="M7.29151559,5.55744681 C7.29151559,5.87234043 7.32632342,6.12765957 7.38723713,6.31489362 C7.45685279,6.50212766 7.54387237,6.70638298 7.66569978,6.92765957 C7.70920957,6.99574468 7.72661349,7.06382979 7.72661349,7.12340426 C7.72661349,7.20851064 7.67440174,7.29361702 7.56127629,7.3787234 L7.01305294,7.73617021 C6.93473532,7.78723404 6.85633067,7.81276596 6.78680203,7.81276596 C6.69978245,7.81276596 6.61276287,7.77021277 6.52574329,7.69361702 C6.40391588,7.56595745 6.29949239,7.42978723 6.21247281,7.29361702 C6.12545323,7.14893617 6.03843365,6.98723404 5.94271211,6.79148936 C5.26387237,7.57446809 4.41116751,7.96595745 3.38433648,7.96595745 C2.65337201,7.96595745 2.07034083,7.76170213 1.64394489,7.35319149 C1.21754895,6.94468085 1,6.4 1,5.71914894 C1,4.99574468 1.26097172,4.40851064 1.79187817,3.96595745 C2.32269761,3.52340426 3.0275562,3.30212766 3.92385787,3.30212766 C4.21963742,3.30212766 4.52429297,3.32765957 4.84626541,3.37021277 C5.16823785,3.41276596 5.49891226,3.48085106 5.84699057,3.55744681 L5.84699057,2.93617021 C5.84699057,2.2893617 5.70775925,1.83829787 5.43799855,1.57446809 C5.1595359,1.3106383 4.68963017,1.18297872 4.01957941,1.18297872 C3.71501088,1.18297872 3.40174039,1.21702128 3.07976795,1.29361702 C2.7577955,1.37021277 2.44452502,1.46382979 2.13995649,1.58297872 C2.00072516,1.64255319 1.89630167,1.67659574 1.83538796,1.69361702 C1.77447426,1.7106383 1.73096447,1.71914894 1.69606962,1.71914894 C1.57432922,1.71914894 1.51341552,1.63404255 1.51341552,1.45531915 L1.51341552,1.03829787 C1.51341552,0.90212766 1.53081943,0.8 1.57432922,0.740425532 C1.61783901,0.680851064 1.69606962,0.621276596 1.81798405,0.561702128 C2.12246555,0.408510638 2.48803481,0.280851064 2.91443075,0.178723404 C3.34082669,0.0680851064 3.7933285,0.0170212766 4.27193619,0.0170212766 C5.30746918,0.0170212766 6.06453952,0.246808511 6.55184917,0.706382979 C7.03045685,1.16595745 7.27411168,1.86382979 7.27411168,2.8 L7.27411168,5.55744681 L7.29151559,5.55744681 Z M3.75852067,6.85106383 C4.04568528,6.85106383 4.34146483,6.8 4.65482234,6.69787234 C4.96809282,6.59574468 5.24655547,6.40851064 5.48150834,6.15319149 C5.62073967,5.99148936 5.72507614,5.81276596 5.77737491,5.60851064 C5.82958666,5.40425532 5.86439449,5.15744681 5.86439449,4.86808511 L5.86439449,4.5106383 C5.61203771,4.45106383 5.34227701,4.4 5.06381436,4.36595745 C4.7853517,4.33191489 4.51559101,4.31489362 4.24583031,4.31489362 C3.66279913,4.31489362 3.23640319,4.42553191 2.94923858,4.65531915 C2.66207397,4.88510638 2.52284264,5.20851064 2.52284264,5.63404255 C2.52284264,6.03404255 2.62726613,6.33191489 2.84481508,6.53617021 C3.05366207,6.74893617 3.3582306,6.85106383 3.75852067,6.85106383 Z M10.7461929,7.77021277 C10.5895577,7.77021277 10.4851342,7.74468085 10.4155185,7.68510638 C10.3459028,7.63404255 10.2849891,7.51489362 10.2327774,7.35319149 L8.18781726,0.774468085 C8.13551849,0.604255319 8.10949964,0.493617021 8.10949964,0.434042553 C8.10949964,0.29787234 8.17902828,0.221276596 8.31834663,0.221276596 L9.17113851,0.221276596 C9.33638869,0.221276596 9.44960116,0.246808511 9.51051487,0.306382979 C9.58013053,0.357446809 9.63234228,0.476595745 9.68455402,0.638297872 L11.146483,6.27234043 L12.5039014,0.638297872 C12.5474982,0.468085106 12.5996229,0.357446809 12.6693256,0.306382979 C12.7389413,0.255319149 12.8606817,0.221276596 13.0174039,0.221276596 L13.7135606,0.221276596 C13.8788107,0.221276596 13.9920232,0.246808511 14.0616389,0.306382979 C14.1312545,0.357446809 14.1921682,0.476595745 14.2269761,0.638297872 L15.6017984,6.34042553 L17.1073241,0.638297872 C17.1595359,0.468085106 17.2204496,0.357446809 17.2813633,0.306382979 C17.350979,0.255319149 17.4641044,0.221276596 17.6207397,0.221276596 L18.4300218,0.221276596 C18.5692531,0.221276596 18.6475707,0.289361702 18.6475707,0.434042553 C18.6475707,0.476595745 18.6388687,0.519148936 18.6301668,0.570212766 C18.6213778,0.621276596 18.6040609,0.689361702 18.5692531,0.782978723 L16.4720812,7.36170213 C16.4197825,7.53191489 16.3588687,7.64255319 16.2892531,7.69361702 C16.2197244,7.74468085 16.106599,7.7787234 15.9586657,7.7787234 L15.2102103,7.7787234 C15.0449601,7.7787234 14.9318347,7.75319149 14.862132,7.69361702 C14.7925163,7.63404255 14.7316026,7.52340426 14.6968818,7.35319149 L13.3480783,1.86382979 L12.0079768,7.34468085 C11.96438,7.51489362 11.9122553,7.62553191 11.8426396,7.68510638 C11.7730239,7.74468085 11.6511965,7.77021277 11.4945613,7.77021277 L10.7461929,7.77021277 Z M21.9282088,8 C21.475707,8 21.0232052,7.94893617 20.5881073,7.84680851 C20.1530094,7.74468085 19.8136331,7.63404255 19.5873822,7.50638298 C19.4481508,7.42978723 19.3523423,7.34468085 19.3176215,7.26808511 C19.2828136,7.19148936 19.2654097,7.10638298 19.2654097,7.02978723 L19.2654097,6.59574468 C19.2654097,6.41702128 19.3350254,6.33191489 19.4655547,6.33191489 C19.5177665,6.33191489 19.5698912,6.34042553 19.622103,6.35744681 C19.6744017,6.37446809 19.7526323,6.40851064 19.8397389,6.44255319 C20.1355185,6.57021277 20.457578,6.67234043 20.7968673,6.74042553 C21.1450326,6.80851064 21.484322,6.84255319 21.8324873,6.84255319 C22.3807107,6.84255319 22.8071066,6.74893617 23.1028861,6.56170213 C23.3988397,6.37446809 23.555475,6.10212766 23.555475,5.75319149 C23.555475,5.51489362 23.4771574,5.31914894 23.3204351,5.15744681 C23.1638869,4.99574468 22.8680203,4.85106383 22.4415373,4.71489362 L21.1798405,4.33191489 C20.5445975,4.13617021 20.0746918,3.84680851 19.7875272,3.46382979 C19.5003626,3.0893617 19.3523423,2.67234043 19.3523423,2.22978723 C19.3523423,1.87234043 19.4307469,1.55744681 19.5873822,1.28510638 C19.7439304,1.01276596 19.9528644,0.774468085 20.2139231,0.587234043 C20.4749819,0.391489362 20.7708484,0.246808511 21.1189268,0.144680851 C21.4670051,0.0425531915 21.8324873,0 22.2153735,0 C22.4067295,0 22.6069616,0.0085106383 22.7983176,0.0340425532 C22.9985497,0.0595744681 23.1812038,0.0936170213 23.3639449,0.127659574 C23.537984,0.170212766 23.7033212,0.212765957 23.8600435,0.263829787 C24.0165917,0.314893617 24.1385062,0.365957447 24.2255257,0.417021277 C24.3473532,0.485106383 24.4343727,0.553191489 24.4865845,0.629787234 C24.5387962,0.69787234 24.5649021,0.791489362 24.5649021,0.910638298 L24.5649021,1.3106383 C24.5649021,1.4893617 24.4952864,1.58297872 24.3647571,1.58297872 C24.2951414,1.58297872 24.182016,1.54893617 24.0340827,1.48085106 C23.5380711,1.25957447 22.9811458,1.14893617 22.3633067,1.14893617 C21.8672951,1.14893617 21.475707,1.22553191 21.2059463,1.38723404 C20.9361856,1.54893617 20.7969543,1.79574468 20.7969543,2.14468085 C20.7969543,2.38297872 20.8839739,2.58723404 21.0580131,2.74893617 C21.2320522,2.9106383 21.5540247,3.07234043 22.0152284,3.21702128 L23.2509065,3.6 C23.8774474,3.79574468 24.3299492,4.06808511 24.5997099,4.41702128 C24.8694706,4.76595745 25,5.16595745 25,5.60851064 C25,5.97446809 24.9216824,6.30638298 24.7737491,6.59574468 C24.6171139,6.88510638 24.4082669,7.14042553 24.1385062,7.34468085 C23.8687455,7.55744681 23.546773,7.7106383 23.1725888,7.8212766 C22.7810007,7.94042553 22.3720087,8 21.9282088,8 L21.9282088,8 Z" id="Fill-1" fill="#252F3E"></path>
                                <path d="M23.5061205,12.2528996 C20.6611541,14.0473765 16.5277379,15 12.9737782,15 C7.99292517,15 3.50496906,13.4270635 0.115221856,10.8128872 C-0.15293136,10.6061162 0.089279913,10.3254984 0.409230542,10.4879614 C4.0756918,12.3045923 8.5981507,13.4049094 13.2764342,13.4049094 C16.4327039,13.4049094 19.9002769,12.8436738 23.0911359,11.691664 C23.5667382,11.507047 23.973162,11.9575124 23.5061205,12.2528996 Z M24.6908891,11.1008897 C24.3276154,10.7021171 22.2869357,10.9088881 21.3616731,11.0048889 C21.0848725,11.0344276 21.041636,10.8276566 21.2924945,10.6725783 C22.9181896,9.69780076 25.5901233,9.97841855 25.9015131,10.3033444 C26.2128164,10.6356549 25.8150399,12.9175206 24.2930261,14.0104531 C24.0596351,14.1803007 23.8348049,14.0916845 23.9384862,13.8701442 C24.2843788,13.139061 25.0540763,11.4922777 24.6908891,11.1008897 L24.6908891,11.1008897 Z" id="Fill-2" fill="#FF9900"></path>
                            </g>
                        </g>
                    </g>
                </g>
            </g>
        </g>
    </g>
</svg>