<?xml version="1.0" encoding="UTF-8"?>
<svg width="138px" height="138px" viewBox="0 0 138 138" version="1.1" xmlns="http://www.w3.org/2000/svg" xmlns:xlink="http://www.w3.org/1999/xlink">
    <!-- Generator: Sketch 60.1 (88133) - https://sketch.com -->
    <title>Group 3</title>
    <desc>Created with Sketch.</desc>
    <g id="Vizion-Insight" stroke="none" stroke-width="1" fill="none" fill-rule="evenodd">
        <g id="Discovery_platform" transform="translate(-140.000000, -138.000000)">
            <g id="Group-3" transform="translate(140.000000, 138.000000)">
                <g id="Group-4">
                    <g id="Group-2" fill="#3DA4D7">
                        <circle id="Oval" cx="69" cy="69" r="69"></circle>
                    </g>
                    <g id="global-search" transform="translate(31.000000, 31.000000)" fill="#FFFFFF" fill-rule="nonzero">
                        <path d="M74.097625,69.44025 L67.499875,62.840125 C68.87975,60.667 69.69675,58.094875 69.69675,55.33275 C69.69675,47.5855 63.3935,41.28225 55.64625,41.28225 C47.899,41.28225 41.59575,47.5855 41.59575,55.33275 C41.59575,63.077625 47.899,69.3785 55.64625,69.3785 C58.406,69.3785 60.9805,68.56625 63.156,67.184 L69.75375,73.7865 C70.354625,74.385 71.138375,74.686625 71.926875,74.686625 C72.710625,74.686625 73.49675,74.385 74.097625,73.7865 C75.297,72.58475 75.297,70.642 74.097625,69.44025 Z M55.6415,64.991875 C50.3215,64.991875 45.987125,60.659875 45.987125,55.335125 C45.987125,50.010375 50.3215,45.678375 55.6415,45.678375 C60.968625,45.678375 65.300626,50.010375 65.300626,55.335125 C65.303,60.659875 60.968625,64.991875 55.6415,64.991875 Z" id="Shape"></path>
                        <path d="M38.5985,68.150625 L38.5985,54.470625 C38.84075,54.475375 39.085375,54.489625 39.327625,54.494375 C39.408375,52.874625 39.72425,51.321375 40.24675,49.86075 C39.69575,49.837 39.142375,49.810875 38.600875,49.801375 L38.600875,39.156625 L67.832375,39.156625 C67.7065,40.698 67.433375,42.199 67.100875,43.6715 C68.51875,45.065625 69.673,46.71625 70.51375,48.545 C71.831875,44.79725 72.582375,40.790625 72.582375,36.6035 L72.582375,36.6035 C72.582375,16.594125 56.304125,0.3135 36.29475,0.3135 C26.526375,0.3135 17.66525,4.210875 11.13875,10.507 C10.97725,10.661375 10.355,11.286 10.200625,11.445125 C3.897375,17.971625 0,26.83275 0,36.59875 L0,36.59875 C0,56.6105 16.27825,72.886375 36.29,72.886375 C40.89275,72.886375 45.28175,71.99575 49.335875,70.41875 C47.478625,69.63975 45.7995,68.516375 44.357875,67.143625 C42.495875,67.637625 40.581625,68.008125 38.5985,68.150625 Z M62.602625,19.011875 C65.62125,23.50775 67.480875,28.820625 67.85375,34.534875 L56.460875,34.534875 C56.2875,29.651875 55.7175,25.14175 54.986,21.1565 C58.387,20.37275 61.009,19.558125 62.602625,19.011875 Z M59.510375,15.140625 C58.094875,15.572875 56.25425,16.085875 54.036,16.59175 C53.344875,13.649125 52.60625,11.134 51.94125,9.112875 C54.769875,10.7255 57.311125,12.765625 59.510375,15.140625 Z M38.5985,5.051625 C41.192,5.23925 43.69525,5.726125 46.082125,6.500375 C46.747125,8.186625 48.1745,12.091125 49.438,17.510875 C46.227,18.061875 42.562375,18.50125 38.5985,18.6675 L38.5985,5.051625 Z M38.5985,23.353375 C42.937625,23.187125 46.90625,22.6955 50.380875,22.0875 C51.053,25.80675 51.582625,30.001 51.758375,34.534875 L38.5985,34.534875 L38.5985,23.353375 Z M8.424125,21.56975 C8.433625,21.5555 8.438375,21.5365 8.447875,21.519875 C8.918125,20.660125 9.426375,19.8265 9.972625,19.016625 C12.521,19.95475 15.0575,20.721875 17.5655,21.329875 C16.84825,25.27475 16.294875,29.72075 16.119125,34.534875 L4.72625,34.534875 C5.032625,29.870375 6.31275,25.4695 8.424125,21.56975 Z M9.975,54.19275 C7.046625,49.82275 5.1965,44.688 4.752375,39.15425 L16.085875,39.15425 C16.157125,43.2915 16.532375,47.63775 17.330375,52.105125 C14.057625,52.869875 11.530625,53.658375 9.975,54.19275 Z M13.069625,58.066375 C14.428125,57.648375 16.188,57.15675 18.294625,56.669875 C18.88125,59.09 19.5985,61.533875 20.46775,63.994375 C17.710375,62.393625 15.22375,60.3915 13.069625,58.066375 Z M18.4965,16.798375 C16.67725,16.356625 14.846125,15.83175 13.007875,15.207125 C13.250125,14.94825 15.986125,11.6945 20.636375,9.1105 C19.9595,11.17675 19.1995,13.767875 18.4965,16.798375 Z M33.979125,68.150625 C31.38325,67.963 28.87525,67.4785 26.49075,66.6995 C24.9185,63.0325 23.723875,59.363125 22.85225,55.746 C26.127375,55.173625 29.889375,54.70575 33.9815,54.53475 L33.979125,68.150625 L33.979125,68.150625 Z M33.979125,49.856 C29.523625,50.027 25.443375,50.532875 21.904625,51.169375 C21.185,47.036875 20.850125,43.004125 20.786,39.15425 L33.979125,39.15425 L33.979125,49.856 Z M33.979125,34.534875 L20.835875,34.534875 C21.011625,30.09125 21.519875,25.973 22.175375,22.306 C26.255625,23.01375 30.212375,23.329625 33.979125,23.39375 L33.979125,34.534875 L33.979125,34.534875 Z M33.979125,18.731625 C30.49975,18.674625 26.847,18.373 23.104,17.74125 C24.377,12.205125 25.82575,8.210375 26.50025,6.500375 C28.882375,5.72375 31.390375,5.23925 33.979125,5.051625 L33.979125,18.731625 L33.979125,18.731625 Z" id="Shape"></path>
                    </g>
                </g>
            </g>
        </g>
    </g>
</svg>