<?xml version="1.0" encoding="UTF-8"?>
<svg width="40px" height="40px" viewBox="0 0 40 40" version="1.1" xmlns="http://www.w3.org/2000/svg" xmlns:xlink="http://www.w3.org/1999/xlink">
    <!-- Generator: Sketch 55.2 (78181) - https://sketchapp.com -->
    <title>ESS icon</title>
    <desc>Created with Sketch.</desc>
    <g id="master_workflow" stroke="none" stroke-width="1" fill="none" fill-rule="evenodd">
        <g id="marketplace_defaultview" transform="translate(-958.000000, -509.000000)">
            <g id="ESS-icon" transform="translate(958.000000, 509.000000)">
                <g id="icon" fill="#E97424">
                    <circle id="Oval" cx="20" cy="20" r="20"></circle>
                </g>
                <g id="noun_elastic-band_490495" transform="translate(8.000000, 8.000000)" fill="#FFFFFF" fill-rule="nonzero">
                    <g id="Group">
                        <path d="M23.8771491,7.5595614 C23.8429386,7.73631579 23.7289035,7.87842105 23.563114,7.94947368 L21.3210088,8.9104386 C21.0139912,9.04201754 20.6617982,8.97447368 20.4249561,8.73807018 L16.0416228,4.35473684 C15.8052193,4.11789474 15.7372368,3.76614035 15.8692544,3.45824561 L16.8302193,1.21657895 C16.9012719,1.05078947 17.0429386,0.936315789 17.2201316,0.90254386 C17.2547807,0.895526316 17.2894298,0.89245614 17.3240789,0.89245614 C17.4635526,0.89245614 17.5964474,0.946842105 17.6986404,1.04903509 L17.9762719,1.32710526 C17.9714474,1.33675439 17.9701316,1.3472807 17.9657456,1.35736842 C17.9407456,1.41307018 17.9227632,1.47140351 17.9056579,1.53017544 C17.8973246,1.5595614 17.8859211,1.58763158 17.8797807,1.61745614 C17.8604825,1.70736842 17.8490789,1.79991228 17.8490789,1.89421053 C17.8490789,2.24640351 17.9854825,2.57666667 18.2332895,2.82447368 L21.9552193,6.54596491 C22.0082895,6.59947368 22.0666228,6.64596491 22.1280263,6.68807018 C22.1661842,6.71526316 22.2069737,6.73719298 22.2477632,6.76 C22.2666228,6.77052632 22.2854825,6.78105263 22.3047807,6.79070175 C22.3591667,6.81745614 22.4144298,6.83982456 22.471886,6.85868421 C22.4727632,6.85912281 22.4732018,6.85912281 22.4736404,6.85912281 C22.6052193,6.90254386 22.7425,6.93061404 22.8854825,6.93061404 C22.9293421,6.93061404 22.9714474,6.9222807 23.0144298,6.91789474 C23.040307,6.91570175 23.0661842,6.91438596 23.0925,6.9104386 C23.1306579,6.90429825 23.1679386,6.89640351 23.2052193,6.88719298 C23.2508333,6.87622807 23.2951316,6.86263158 23.3389912,6.84684211 C23.3648684,6.83719298 23.3907456,6.82842105 23.4157456,6.81745614 C23.4280263,6.81219298 23.4407456,6.80912281 23.4525877,6.80342105 L23.7306579,7.08105263 C23.8578509,7.20868421 23.9113596,7.38280702 23.8771491,7.5595614 M18.6692544,10.0907018 L17.7310965,10.0907018 C16.871886,10.0907018 16.2240789,10.7038596 16.2240789,11.5174561 L16.2240789,12.455614 C16.2240789,12.8244737 15.9113596,13.1608772 15.5679386,13.1608772 L14.6302193,13.1608772 C13.7885526,13.1608772 13.1539035,13.7876316 13.1539035,14.6187719 L13.1539035,15.5569298 C13.1539035,15.91 12.8262719,16.2310526 12.4666228,16.2310526 L11.5284649,16.2310526 C10.7047807,16.2310526 10.0837281,16.8709649 10.0837281,17.7200877 L10.0837281,18.6582456 C10.0837281,18.9946491 9.74118421,19.3012281 9.36530702,19.3012281 L9.27890351,19.3012281 L7.82232456,17.8450877 C8.37320175,17.6021053 8.7679386,17.0696491 8.7679386,16.4652632 L8.7679386,15.5271053 C8.7679386,15.1613158 8.99600877,14.9152632 9.33548246,14.9152632 L10.2736404,14.9152632 C11.1214474,14.9152632 11.838114,14.2047368 11.838114,13.3639474 L11.838114,12.4257895 C11.838114,12.0784211 12.0789035,11.8450877 12.4372368,11.8450877 L13.3749561,11.8450877 C14.2060965,11.8450877 14.9082895,11.1205263 14.9082895,10.2626316 L14.9082895,9.32447368 C14.9082895,8.94464912 15.2245175,8.77491228 15.538114,8.77491228 L16.4762719,8.77491228 C17.1911842,8.77491228 17.8078509,8.20517544 17.946886,7.50035088 L19.3284649,8.88192982 L19.2942544,9.35429825 C19.2942544,9.70166667 19.0271491,10.0907018 18.6692544,10.0907018 M9.15039474,21.0437719 L8.13986842,23.4025439 C8.07364035,23.5564912 7.94162281,23.6626316 7.77758772,23.6942105 C7.61267544,23.7271053 7.45083333,23.6762281 7.33285088,23.5582456 L7.01574561,23.2402632 C7.02013158,23.230614 7.02188596,23.2200877 7.02627193,23.21 C7.05127193,23.1542982 7.06925439,23.0959649 7.08592105,23.037193 C7.09425439,23.007807 7.10609649,22.9797368 7.11223684,22.9499123 C7.13153509,22.86 7.1429386,22.7674561 7.1429386,22.6731579 C7.1429386,22.3209649 7.00609649,21.9907018 6.75828947,21.7428947 L3.03679825,18.0214035 C2.9797807,17.964386 2.91662281,17.9152632 2.85039474,17.8709649 C2.83372807,17.86 2.81662281,17.8507895 2.79951754,17.8407018 C2.7429386,17.8060526 2.68460526,17.7762281 2.62364035,17.7512281 C2.61311404,17.7468421 2.60302632,17.7424561 2.5925,17.7380702 C2.25346491,17.6069298 1.86442982,17.6091228 1.53899123,17.7639474 L1.22144737,17.4464035 C1.10346491,17.3279825 1.05346491,17.1661404 1.08548246,17.0021053 C1.11662281,16.8376316 1.22320175,16.7060526 1.37714912,16.6398246 L3.73548246,15.6292982 C4.00390351,15.514386 4.31004386,15.5731579 4.51662281,15.7797368 L8.99995614,20.2626316 C9.20609649,20.4692105 9.26530702,20.7757895 9.15039474,21.0437719 M6.57495614,14.2722807 L6.57495614,13.3341228 C6.57495614,12.9683333 6.80302632,12.7222807 7.1425,12.7222807 L8.08065789,12.7222807 C8.92846491,12.7222807 9.64513158,12.0117544 9.64513158,11.1709649 L9.64513158,10.232807 C9.64513158,9.8854386 9.88592105,9.65210526 10.2442544,9.65210526 L11.1819737,9.65210526 C12.013114,9.65210526 12.715307,8.92754386 12.715307,8.06964912 L12.715307,7.13149123 C12.715307,6.75166667 13.0315351,6.58192982 13.3451316,6.58192982 L14.2832895,6.58192982 C14.9920614,6.58192982 15.6043421,6.02140351 15.7508333,5.30429825 L17.1407456,6.69377193 L17.1012719,7.16131579 C17.1012719,7.50868421 16.8341667,7.8977193 16.4762719,7.8977193 L15.538114,7.8977193 C14.6789035,7.8977193 14.0310965,8.51087719 14.0310965,9.32447368 L14.0310965,10.2626316 C14.0310965,10.6314912 13.7183772,10.9678947 13.3749561,10.9678947 L12.4372368,10.9678947 C11.5955702,10.9678947 10.9609211,11.5946491 10.9609211,12.4257895 L10.9609211,13.3639474 C10.9609211,13.7170175 10.6332895,14.0380702 10.2736404,14.0380702 L9.33548246,14.0380702 C8.51179825,14.0380702 7.89074561,14.6779825 7.89074561,15.5271053 L7.89074561,16.4652632 C7.89074561,16.8016667 7.54820175,17.1082456 7.17232456,17.1082456 L7.08592105,17.1082456 L5.62934211,15.6521053 C6.1802193,15.4091228 6.57495614,14.8766667 6.57495614,14.2722807 M24.3508333,6.46087719 L24.0688158,6.17885965 C24.3003947,5.69026316 24.219693,5.08894737 23.8157456,4.6854386 L20.0942544,0.963947368 C19.690307,0.559561404 19.0889912,0.478859649 18.6003947,0.710877193 L18.3188158,0.428859649 C17.9872368,0.0972807018 17.5148684,-0.0478947368 17.0539035,0.0411403509 C16.5938158,0.129736842 16.2087281,0.439824561 16.0240789,0.870964912 L15.063114,3.11263158 C14.9565351,3.36131579 14.9144298,3.62359649 14.9293421,3.88017544 C14.9293421,3.8854386 14.9262719,3.88982456 14.9262719,3.89508772 L14.9082895,4.96833333 C14.9082895,5.31570175 14.6411842,5.70473684 14.2832895,5.70473684 L13.3451316,5.70473684 C12.4859211,5.70473684 11.838114,6.31789474 11.838114,7.13149123 L11.838114,8.06964912 C11.838114,8.43850877 11.5253947,8.77491228 11.1819737,8.77491228 L10.2442544,8.77491228 C9.40258772,8.77491228 8.7679386,9.40166667 8.7679386,10.232807 L8.7679386,11.1709649 C8.7679386,11.5240351 8.44030702,11.8450877 8.08065789,11.8450877 L7.1425,11.8450877 C6.31881579,11.8450877 5.69776316,12.485 5.69776316,13.3341228 L5.69776316,14.2722807 C5.69776316,14.6086842 5.3552193,14.9152632 4.97934211,14.9152632 L4.81618421,14.9152632 C4.38899123,14.6630702 3.86399123,14.6200877 3.39030702,14.8231579 L1.03153509,15.8336842 C0.612236842,16.0135088 0.310482456,16.3880702 0.224078947,16.8358772 C0.137675439,17.2841228 0.278464912,17.7442105 0.60127193,18.0670175 L0.923201754,18.3885088 C0.691184211,18.8771053 0.772324561,19.4784211 1.17627193,19.8819298 L4.89776316,23.6034211 C5.15434211,23.86 5.49118421,23.9885088 5.82802632,23.9885088 C6.02144737,23.9885088 6.21311404,23.9411404 6.39118421,23.8564912 L6.71267544,24.1784211 C6.97276316,24.4385088 7.32232456,24.580614 7.68328947,24.580614 C7.76969298,24.580614 7.85697368,24.5722807 7.94337719,24.555614 C8.39162281,24.4692105 8.76618421,24.1674561 8.94600877,23.7481579 L9.95697368,21.389386 C10.1425,20.9560526 10.121886,20.4792982 9.92451754,20.0735965 C10.5223246,19.8516667 10.9609211,19.2950877 10.9609211,18.6582456 L10.9609211,17.7200877 C10.9609211,17.3542982 11.1889912,17.1082456 11.5284649,17.1082456 L12.4666228,17.1082456 C13.3144298,17.1082456 14.0310965,16.3977193 14.0310965,15.5569298 L14.0310965,14.6187719 C14.0310965,14.2714035 14.271886,14.0380702 14.6302193,14.0380702 L15.5679386,14.0380702 C16.3990789,14.0380702 17.1012719,13.3135088 17.1012719,12.455614 L17.1012719,11.5174561 C17.1012719,11.1376316 17.4175,10.9678947 17.7310965,10.9678947 L18.6692544,10.9678947 C19.4082895,10.9678947 20.0372368,10.357807 20.1473246,9.61570175 C20.4074123,9.76921053 20.6990789,9.85473684 20.9977632,9.85473684 C21.2223246,9.85473684 21.4499561,9.8095614 21.6666228,9.71657895 L23.9087281,8.75561404 C24.3398684,8.57096491 24.6499561,8.18587719 24.7385526,7.72535088 C24.8271491,7.26526316 24.6819737,6.79245614 24.3508333,6.46087719" id="Shape"></path>
                    </g>
                </g>
            </g>
        </g>
    </g>
</svg>