<?xml version="1.0" encoding="UTF-8"?>
<svg width="40px" height="40px" viewBox="0 0 40 40" version="1.1" xmlns="http://www.w3.org/2000/svg" xmlns:xlink="http://www.w3.org/1999/xlink">
    <!-- Generator: Sketch 55.2 (78181) - https://sketchapp.com -->
    <title>fileBeats</title>
    <desc>Created with Sketch.</desc>
    <g id="Marketplace-workflow" stroke="none" stroke-width="1" fill="none" fill-rule="evenodd">
        <g id="marketplace_defaultview" transform="translate(-458.000000, -777.000000)">
            <g id="analytics_modules" transform="translate(440.000000, 765.000000)">
                <g id="file_beats_card">
                    <g id="fileBeats" transform="translate(18.000000, 12.000000)">
                        <circle id="Oval" stroke="#D9E3E7" stroke-width="0.5" fill="#FFFFFF" cx="20" cy="20" r="19.75"></circle>
                        <g id="Beats-Color" transform="translate(11.000000, 7.000000)" fill-rule="nonzero">
                            <path d="M19.0717321,13 C17.2564987,16.5746485 13.4349832,18.8503728 9.23977333,18.8549618 L0,18.8549618 L0,26 L12.5996909,26 C15.853737,26.0001527 18.815123,24.2239618 20.2005563,21.4411252 C21.5859896,18.6582887 21.1461865,15.3695276 19.0717321,13 Z" id="Path" fill="#00BFB3"></path>
                            <path d="M12.5368732,9 L0,9 L0,16 L9.19370698,16 C12.6612894,15.9975446 15.773368,13.7608624 16.7158363,10.1181083 C14.9838635,9.37281569 13.5908758,9.00011292 12.5368732,9 Z" id="Path" fill="#343741"></path>
                            <path d="M8.9047619,0 L0,0 L0,9.73810402 L12.1428571,9.73810402 C13.6741724,9.73826111 15.1737151,10.1759964 16.4657143,11 C16.8171975,10.0788953 16.9982517,9.10128024 17,8.11508668 L17,8.11508668 C17,5.96283188 16.1471113,3.89872783 14.6289597,2.37685386 C13.110808,0.854979892 11.0517525,0 8.9047619,0 Z" id="Path" fill="#0077CC"></path>
                        </g>
                    </g>
                </g>
            </g>
        </g>
    </g>
</svg>