<?xml version="1.0" encoding="UTF-8"?>
<svg width="40px" height="40px" viewBox="0 0 40 40" version="1.1" xmlns="http://www.w3.org/2000/svg" xmlns:xlink="http://www.w3.org/1999/xlink">
    <!-- Generator: Sketch 55.2 (78181) - https://sketchapp.com -->
    <title>icon</title>
    <desc>Created with Sketch.</desc>
    <g id="Symbols" stroke="none" stroke-width="1" fill="none" fill-rule="evenodd">
        <g id="appCard" transform="translate(-18.000000, -12.000000)">
            <g id="icon">
                <g transform="translate(18.000000, 12.000000)">
                    <circle id="Oval" fill="#1846BA" cx="20" cy="20" r="20"></circle>
                    <g id="noun_search-file_159817" transform="translate(10.000000, 7.000000)" fill="#FFFFFF" fill-rule="nonzero">
                        <polygon id="Path" points="20 6 14 0 14 6"></polygon>
                        <path d="M20,7.22222222 L14.2857143,7.22222222 L12.8571429,7.22222222 L12.8571429,5.77777778 L12.8571429,0 L0,0 L0,26 L20,26 L20,7.22222222 Z M15.8412698,23.1111111 L12.1189365,19.3887778 C11.3213143,19.9142667 10.3676921,20.2222222 9.34126984,20.2222222 C6.54915873,20.2222222 4.28571429,17.9587778 4.28571429,15.1666667 C4.28571429,12.3745556 6.54915873,10.1111111 9.34126984,10.1111111 C12.133381,10.1111111 14.3968254,12.3745556 14.3968254,15.1666667 C14.3968254,16.1930889 14.0888698,17.1467111 13.563381,17.9443333 L17.2857143,21.6666667 L15.8412698,23.1111111 Z" id="Shape"></path>
                        <circle id="Oval" cx="9.5" cy="15.25" r="4"></circle>
                    </g>
                </g>
            </g>
        </g>
    </g>
</svg>