<?xml version="1.0" encoding="UTF-8"?>
<svg width="40px" height="40px" viewBox="0 0 40 40" version="1.1" xmlns="http://www.w3.org/2000/svg" xmlns:xlink="http://www.w3.org/1999/xlink">
    <!-- Generator: Sketch 55.2 (78181) - https://sketchapp.com -->
    <title>icon</title>
    <desc>Created with Sketch.</desc>
    <g id="Marketplace-workflow" stroke="none" stroke-width="1" fill="none" fill-rule="evenodd">
        <g id="marketplace_defaultview" transform="translate(-708.000000, -777.000000)">
            <g id="analytics_modules" transform="translate(440.000000, 765.000000)">
                <g id="metricbeats_card" transform="translate(250.000000, 0.000000)">
                    <g id="icon" transform="translate(18.000000, 12.000000)">
                        <circle id="Oval" fill="#FFFFFF" cx="20" cy="20" r="20"></circle>
                        <g id="noun_ecg-lines_2729272" fill="#000000" fill-rule="nonzero">
                            <path d="M20,0 C8.954305,0 0,8.954305 0,20 C0,31.045695 8.954305,40 20,40 C31.045695,40 40,31.045695 40,20 C39.979037,8.96299983 31.0370002,0.02096302 20,0 Z M32.047619,25.1428571 L28.0952381,25.1428571 C27.6975663,25.1393074 27.3527459,24.8669776 27.2571429,24.4809524 L27.0666667,23.6809524 L25.8190476,28.852381 C25.7282945,29.2448837 25.3790478,29.5230972 24.9761905,29.5239969 L24.9428571,29.5239969 C24.5306799,29.5082191 24.1873226,29.2027909 24.1238095,28.7952381 L22.6952381,19.852381 L21.3857143,24.5714286 C21.2696806,24.9699247 20.8899744,25.2323394 20.4761905,25.2 C20.0674793,25.1765822 19.7323787,24.867412 19.6761905,24.4619048 L18.6666667,17.5095238 L17.1428571,28.7666667 C17.0920936,29.1988148 16.7255953,29.5243635 16.2904762,29.5239969 C15.8703717,29.5324693 15.5039156,29.2401054 15.4190476,28.8285714 L13.9238095,21.1619048 L12.8095238,24.4952381 C12.689396,24.8479427 12.3583146,25.0852496 11.9857143,25.0857143 L7.95238095,25.0857143 C7.49988601,25.0521038 7.14991176,24.6751701 7.14991176,24.2214286 C7.14991176,23.7676871 7.49988601,23.3907533 7.95238095,23.3571429 L11.3666667,23.3571429 L13.3333333,17.4857143 C13.4608614,17.1159713 13.8191132,16.8764877 14.2095238,16.9 C14.6059018,16.9298267 14.930475,17.2268603 14.9952381,17.6190476 L16.1238095,23.4190476 L17.8142857,11.2571429 C17.8536928,10.8155618 18.2233313,10.4768986 18.6666667,10.4761876 L18.6666667,10.4761876 C19.1011873,10.4750689 19.4685955,10.7975716 19.5238095,11.2285714 L20.8190476,20.152381 L22.0952381,15.552381 C22.2056236,15.161915 22.5709017,14.8993098 22.9761905,14.9190476 C23.3836472,14.9394402 23.7202674,15.2441911 23.7809524,15.647619 L25.152381,24.247619 L26.2285714,19.7952381 C26.3246124,19.4075025 26.6719778,19.1347127 27.0714286,19.1333333 L27.0714286,19.1333333 C27.4702963,19.1334648 27.8169689,19.4072574 27.9095238,19.7952381 L28.7809524,23.4142857 L32.047619,23.4142857 C32.500114,23.4478962 32.8500882,23.8248299 32.8500882,24.2785714 C32.8500882,24.7323129 32.500114,25.1092467 32.047619,25.1428571 L32.047619,25.1428571 Z" id="Shape"></path>
                        </g>
                    </g>
                </g>
            </g>
        </g>
    </g>
</svg>