<?xml version="1.0" encoding="UTF-8"?>
<svg width="138px" height="138px" viewBox="0 0 138 138" version="1.1" xmlns="http://www.w3.org/2000/svg" xmlns:xlink="http://www.w3.org/1999/xlink">
    <!-- Generator: Sketch 60.1 (88133) - https://sketch.com -->
    <title>Group</title>
    <desc>Created with Sketch.</desc>
    <g id="Vizion-Insight" stroke="none" stroke-width="1" fill="none" fill-rule="evenodd">
        <g id="Insights_platform" transform="translate(-140.000000, -138.000000)">
            <g id="Group" transform="translate(140.000000, 138.000000)">
                <g id="icon" fill="#FDC60B">
                    <circle id="Oval" cx="69" cy="69" r="69"></circle>
                </g>
                <g id="statistics" transform="translate(33.000000, 33.000000)" fill="#FFFFFF" fill-rule="nonzero">
                    <path d="M10.6875,33.75 C12.3892822,33.75 13.9295655,33.0671997 15.0677491,31.9707641 L21.3118286,35.0925293 C21.2805176,35.3468628 21.234375,35.5968017 21.234375,35.859375 C21.234375,39.3486328 24.0732422,42.1875 27.5625,42.1875 C31.0517578,42.1875 33.890625,39.3486328 33.890625,35.859375 C33.890625,34.885437 33.651123,33.9735718 33.2561645,33.1484985 L41.7266235,24.6780395 C42.5516968,25.072998 43.463562,25.3125 44.4375,25.3125 C47.9267578,25.3125 50.765625,22.4736328 50.765625,18.984375 C50.765625,18.3273926 50.6365356,17.7061157 50.449768,17.1101074 L57.8095093,11.5916749 C58.8136597,12.2623902 60.0172118,12.65625 61.3125,12.65625 C64.8017578,12.65625 67.640625,9.81738281 67.640625,6.328125 C67.640625,2.83886719 64.8017578,0 61.3125,0 C57.8232422,0 54.984375,2.83886719 54.984375,6.328125 C54.984375,6.98510742 55.1134644,7.60638431 55.300232,8.20239258 L47.9404907,13.7208251 C46.9363403,13.0501098 45.7327882,12.65625 44.4375,12.65625 C40.9482422,12.65625 38.109375,15.4951172 38.109375,18.984375 C38.109375,19.958313 38.348877,20.8701782 38.7438355,21.6952515 L30.2733765,30.1657105 C29.4483032,29.770752 28.536438,29.53125 27.5625,29.53125 C25.8607178,29.53125 24.3204345,30.2140503 23.1822509,31.3104859 L16.9381714,28.1887207 C16.9694824,27.9343872 17.015625,27.6844483 17.015625,27.421875 C17.015625,23.9326172 14.1767578,21.09375 10.6875,21.09375 C7.19824219,21.09375 4.359375,23.9326172 4.359375,27.421875 C4.359375,30.9111328 7.19824219,33.75 10.6875,33.75 Z" id="Path"></path>
                    <path d="M69.890625,67.78125 L67.640625,67.78125 L67.640625,23.203125 C67.640625,22.0374757 66.6968993,21.09375 65.53125,21.09375 L57.09375,21.09375 C55.9281007,21.09375 54.984375,22.0374757 54.984375,23.203125 L54.984375,67.78125 L50.765625,67.78125 L50.765625,35.859375 C50.765625,34.6937257 49.8218993,33.75 48.65625,33.75 L40.21875,33.75 C39.0531007,33.75 38.109375,34.6937257 38.109375,35.859375 L38.109375,67.78125 L33.890625,67.78125 L33.890625,52.734375 C33.890625,51.5687257 32.9468993,50.625 31.78125,50.625 L23.34375,50.625 C22.1781007,50.625 21.234375,51.5687257 21.234375,52.734375 L21.234375,67.78125 L17.015625,67.78125 L17.015625,44.296875 C17.015625,43.1312257 16.0718993,42.1875 14.90625,42.1875 L6.46875,42.1875 C5.30310066,42.1875 4.359375,43.1312257 4.359375,44.296875 L4.359375,67.78125 L2.109375,67.78125 C0.943725656,67.78125 0,68.7249757 0,69.890625 C0,71.0562743 0.943725656,72 2.109375,72 L69.890625,72 C71.0562743,72 72,71.0562743 72,69.890625 C72,68.7249757 71.0562743,67.78125 69.890625,67.78125 Z" id="Path"></path>
                </g>
            </g>
        </g>
    </g>
</svg>