<?xml version="1.0" encoding="UTF-8"?>
<svg width="40px" height="40px" viewBox="0 0 40 40" version="1.1" xmlns="http://www.w3.org/2000/svg" xmlns:xlink="http://www.w3.org/1999/xlink">
    <!-- Generator: Sketch 55.2 (78181) - https://sketchapp.com -->
    <title>LAS Icon</title>
    <desc>Created with Sketch.</desc>
    <g id="master_workflow" stroke="none" stroke-width="1" fill="none" fill-rule="evenodd">
        <g id="marketplace_defaultview" transform="translate(-708.000000, -509.000000)">
            <g id="platform_services" transform="translate(440.000000, 497.000000)">
                <g id="las_card" transform="translate(250.000000, 0.000000)">
                    <g id="LAS-Icon" transform="translate(18.000000, 12.000000)">
                        <circle id="Oval" fill="#FDC60B" cx="20" cy="20" r="20"></circle>
                        <g id="noun_logs_1107315" transform="translate(8.000000, 13.000000)" fill="#000000" fill-rule="nonzero">
                            <path d="M18.3333333,8.74185833 C18.3333333,8.51173969 18.1467853,8.32519167 17.9166667,8.32519167 L13.75,8.32685833 C13.5198814,8.32685833 13.3333333,8.51340635 13.3333333,8.743525 C13.3333333,8.97364365 13.5198814,9.16019167 13.75,9.16019167 L17.9166667,9.158525 C18.1467853,9.158525 18.3333333,8.97197698 18.3333333,8.74185833 Z" id="Path"></path>
                            <path d="M17.5,10.408525 C17.5,10.6386436 17.686548,10.8251917 17.9166667,10.8251917 L20.4166667,10.823975 C20.6467853,10.823975 20.8333333,10.637427 20.8333333,10.4073083 C20.8333333,10.1771897 20.6467853,9.99064167 20.4166667,9.99064167 L17.9166667,9.99185833 C17.686548,9.99185833 17.5,10.1784064 17.5,10.408525 Z" id="Path"></path>
                            <path d="M11.25,9.99185833 L7.91666667,9.993075 C7.68654802,9.993075 7.5,10.179623 7.5,10.4097417 C7.5,10.6398603 7.68654802,10.8264083 7.91666667,10.8264083 L11.25,10.8251917 C11.4801186,10.8251917 11.6666667,10.6386436 11.6666667,10.408525 C11.6666667,10.1784064 11.4801186,9.99185833 11.25,9.99185833 Z" id="Path"></path>
                            <path d="M8.75,3.32519167 L10.4166667,3.32519167 C10.6467853,3.32519167 10.8333333,3.13864365 10.8333333,2.908525 C10.8333333,2.67840635 10.6467853,2.49185833 10.4166667,2.49185833 L8.75,2.49185833 C8.51988135,2.49185833 8.33333333,2.67840635 8.33333333,2.908525 C8.33333333,3.13864365 8.51988135,3.32519167 8.75,3.32519167 Z" id="Path"></path>
                            <path d="M14.1666667,4.57641667 C14.1666667,4.80653531 14.3532147,4.99308333 14.5833333,4.99308333 L17.0833333,4.99186667 C17.313452,4.99186667 17.5,4.80531865 17.5,4.5752 C17.5,4.34508135 17.313452,4.15853333 17.0833333,4.15853333 L14.5833333,4.15975 C14.3532147,4.15975 14.1666667,4.34629802 14.1666667,4.57641667 Z" id="Path"></path>
                            <path d="M12.9166667,3.32804172 L12.917075,3.32804172 L16.2504083,3.32600833 C16.480527,3.32589557 16.6669836,3.13925614 16.6668709,2.9091375 C16.6667581,2.67901886 16.4801186,2.49256225 16.25,2.49267495 L16.2495917,2.49267495 L12.9162583,2.49470833 C12.6861397,2.4948211 12.4996831,2.68146053 12.4997958,2.91157917 C12.4999086,3.14169781 12.686548,3.32815442 12.9166667,3.32804172 L12.9166667,3.32804172 Z" id="Path"></path>
                            <path d="M18.75,3.3256 L21.25,3.32519167 C21.4801186,3.32519167 21.6666667,3.13864365 21.6666667,2.908525 C21.6666667,2.67840635 21.4801186,2.49185833 21.25,2.49185833 L18.75,2.49226667 C18.5198814,2.49226667 18.3333333,2.67881469 18.3333333,2.90893333 C18.3333333,3.13905198 18.5198814,3.3256 18.75,3.3256 Z" id="Path"></path>
                            <path d="M24.5833333,12.4918583 L23.5976167,12.4918583 C24.3229692,10.9796869 24.3549713,9.22684908 23.6853,7.68920833 C23.5010007,7.25935063 23.144838,6.92651367 22.7035,6.77170833 C23.0116228,6.13713729 23.2096537,5.45481348 23.2891333,4.75388333 C23.317334,4.69831365 23.332442,4.63702664 23.3333,4.57471667 C23.3306909,4.54779024 23.325321,4.52120331 23.317275,4.495375 C23.3726786,3.46559767 23.1591633,2.43912617 22.6977167,1.51685833 C22.4834476,1.08940729 22.0446644,0.821085661 21.5665333,0.825080024 L4.58211667,0.833333333 C4.52526482,0.833448054 4.46904623,0.845274439 4.41696667,0.868075 C4.33511981,0.845636073 4.25069807,0.83395721 4.16583333,0.833333333 L4.165,0.833333333 C3.07083333,0.834166667 2.49916667,2.51098333 2.5,4.1675 C2.48675663,4.92862427 2.62293862,5.68495524 2.90083333,6.39365833 C2.94305,6.49199167 2.98760833,6.57655833 3.03241667,6.65855 L2.91666667,6.65855 C2.86785815,6.66399531 2.82046414,6.67835558 2.77684167,6.70091667 C2.68679714,6.67353457 2.59327968,6.65925759 2.49916667,6.658525 L2.49878333,6.658525 C1.88376075,6.71994219 1.37525371,7.16442083 1.23211667,7.7657 C0.954762519,8.47478339 0.819274053,9.23140835 0.833333333,9.992675 C0.820126196,10.7536637 0.956307852,11.5098541 1.23416667,12.218425 C1.27483311,12.3117911 1.32016811,12.4030535 1.37,12.4918667 L1.25,12.4918667 C1.01988135,12.4918667 0.833333333,12.6784147 0.833333333,12.9085333 C0.833333333,13.138652 1.01988135,13.3252 1.25,13.3252 L4.87813333,13.3252 C4.91881244,13.3305816 4.95979981,13.3333333 5.00083333,13.3333333 L5.00166667,13.3333333 C5.01641667,13.3333333 5.028675,13.3258333 5.043225,13.3251917 L5.37916667,13.3251917 C5.39246191,13.3286229 5.40593115,13.3313407 5.41951667,13.3333333 L22.9195167,13.3251917 L24.5833333,13.3251917 C24.813452,13.3251917 25,13.1386436 25,12.908525 C25,12.6784064 24.813452,12.4918583 24.5833333,12.4918583 Z M4.9775,12.4918583 C4.74176124,12.3703062 4.56831409,12.1548561 4.4999,11.8986 C4.41780911,11.6959599 4.3537444,11.4864766 4.30845,11.2725833 L4.87790833,10.703125 C4.99704747,10.5839634 5.03268641,10.4047733 4.9682104,10.2490926 C4.90373439,10.093412 4.75183743,9.99189095 4.58333333,9.99185833 L4.167025,9.99185833 C4.16819167,8.44666667 4.70555833,7.5 4.99916667,7.5 C5.2511384,7.6109108 5.43654787,7.83352432 5.50005833,8.1014 C5.73192967,8.70702358 5.84507904,9.35161256 5.83333333,10 C5.83416244,11.5143333 5.3212,12.4489833 5.02314167,12.4918583 L4.9775,12.4918583 L4.9775,12.4918583 Z M22.9170583,8.01185833 C22.961,8.11648333 22.99325,8.22055 23.030275,8.32481667 L20.7551917,8.32558333 C20.525073,8.32558333 20.338525,8.51213135 20.338525,8.74225 C20.338525,8.97236865 20.525073,9.15891667 20.7551917,9.15891667 L23.2551917,9.15808333 L23.2601917,9.15706667 C23.4089671,10.0040515 23.3278372,10.8754382 23.0252583,11.6804 C22.9902404,11.6681451 22.9536982,11.6607839 22.9166667,11.658525 L6.457625,11.658525 C6.59825552,11.1166739 6.66851401,10.5589668 6.66666667,9.99916667 C6.66488803,9.71856975 6.64615389,9.43833674 6.61056667,9.16 L9.58333333,9.158525 C9.81345198,9.158525 10,8.97197698 10,8.74185833 C10,8.51173969 9.81345198,8.32519167 9.58333333,8.32519167 L6.4534,8.32671667 C6.40358517,8.13809729 6.34093924,7.95310248 6.2659,7.773025 C6.22523172,7.6796022 6.17987402,7.5882916 6.13,7.49944167 L22.1191667,7.49186465 C22.4648771,7.49112499 22.7781696,7.69530543 22.917075,8.01188333 L22.9170583,8.01185833 Z M21.9474167,1.87904167 C22.3005264,2.5872841 22.4873256,3.36677914 22.4935833,4.15814167 L19.5833333,4.158525 C19.3532147,4.158525 19.1666667,4.34507302 19.1666667,4.57519167 C19.1666667,4.80531031 19.3532147,4.99185833 19.5833333,4.99185833 L22.42905,4.9915 C22.3732969,5.28274815 22.2931421,5.56879002 22.1894333,5.8466 C22.1551933,5.83471401 22.1195033,5.82751266 22.0833333,5.82519167 L5.62429167,5.82519167 C5.69587261,5.55132289 5.74774973,5.2726797 5.779525,4.9914 L9.58333333,4.99064167 C9.81345198,4.99064167 10,4.80409365 10,4.573975 C10,4.34385635 9.81345198,4.15730833 9.58333333,4.15730833 L5.832975,4.15801667 C5.84544003,3.39953337 5.70940487,2.64593714 5.43253333,1.93968333 C5.39185668,1.84634096 5.3465219,1.75509846 5.2967,1.6663 L21.5665333,1.65851667 C21.7250898,1.65368974 21.8726803,1.73914998 21.947425,1.87906667 L21.9474167,1.87904167 Z M4.16583333,1.66666667 C4.41780507,1.77757746 4.60321454,2.00019099 4.666725,2.26806667 C4.89859634,2.87369025 5.0117457,3.51827922 5,4.16666667 C5.00082911,5.71695833 4.46166667,6.66666667 4.1675,6.66666667 C3.91552827,6.55575587 3.73011879,6.33314235 3.66660833,6.06526667 C3.434737,5.45964309 3.32158763,4.81505411 3.33333333,4.16666667 L3.33369167,4.15833333 L3.75,4.158525 C3.91850865,4.1585025 4.07041486,4.05698519 4.13489728,3.90130224 C4.1993797,3.74561929 4.16374236,3.56642319 4.0446,3.44725833 L3.47676667,2.879425 C3.49772453,2.38778617 3.75422491,1.93634514 4.16583333,1.66666667 L4.16583333,1.66666667 Z M1.99829167,8.09366667 C2.0595049,7.82455814 2.24564324,7.60091031 2.49916667,7.49185833 C2.74547178,7.59986327 2.92758147,7.81621958 2.991975,8.07734167 L2.62205,8.44726667 C2.50291146,8.56643445 2.46727896,8.74563072 2.5317649,8.90131153 C2.59625084,9.05699234 2.74815865,9.15850587 2.91666667,9.158525 L3.27158333,9.158525 C3.31118938,9.43443073 3.33182114,9.7127285 3.3333343,9.99145833 C3.33416667,11.54175 2.795,12.4914583 2.50083333,12.4914583 C2.2488616,12.3805475 2.06345213,12.157934 1.99994167,11.8900583 C1.76806721,11.2845748 1.65491686,10.640116 1.66666667,9.99185833 C1.65422828,9.34369819 1.76682322,8.69921489 1.99829167,8.09366667 L1.99829167,8.09366667 Z" id="Shape"></path>
                        </g>
                    </g>
                </g>
            </g>
        </g>
    </g>
</svg>