<?xml version="1.0" encoding="UTF-8"?>
<svg width="40px" height="40px" viewBox="0 0 40 40" version="1.1" xmlns="http://www.w3.org/2000/svg" xmlns:xlink="http://www.w3.org/1999/xlink">
    <!-- Generator: Sketch 55.2 (78181) - https://sketchapp.com -->
    <title>Vmware Icon</title>
    <desc>Created with Sketch.</desc>
    <defs>
        <polygon id="path-1" points="0.00684210526 0.015423913 21.5746404 0.015423913 21.5746404 4.7826087 0.00684210526 4.7826087"></polygon>
    </defs>
    <g id="Marketplace-workflow" stroke="none" stroke-width="1" fill="none" fill-rule="evenodd">
        <g id="marketplace_defaultview" transform="translate(-708.000000, -989.000000)">
            <g id="analytics_modules" transform="translate(440.000000, 765.000000)">
                <g id="vmware_card" transform="translate(250.000000, 212.000000)">
                    <g id="Vmware-Icon" transform="translate(18.000000, 12.000000)">
                        <g id="Group" fill="#FFFFFF" stroke="#D9E3E7" stroke-width="0.5">
                            <circle id="Oval" cx="20" cy="20" r="19.75"></circle>
                        </g>
                        <g id="vmware-seeklogo.com" transform="translate(5.000000, 18.000000)">
                            <path d="M13.0022989,4.48200466 L11.7081053,0.716549739 C11.6912814,0.664522117 11.6666667,0.595859812 11.6666667,0.535573838 C11.6666667,0.37217643 11.7986604,0.217391304 11.9877875,0.217391304 C12.1528643,0.217391304 12.2603563,0.329115019 12.3099245,0.492512427 L13.3820208,3.73710124 L14.4617952,0.483428239 C14.5110247,0.329115019 14.610387,0.217391304 14.7744476,0.217391304 L14.8078695,0.217391304 C14.9814147,0.217391304 15.088455,0.329115019 15.1376845,0.483428239 L16.2091034,3.73710124 L17.2983623,0.475523816 C17.3399138,0.337373372 17.4297915,0.217391304 17.6033368,0.217391304 C17.78456,0.217391304 17.9166667,0.363092242 17.9166667,0.527197508 C17.9166667,0.58724753 17.8917132,0.655673882 17.8755668,0.70817341 L16.5730177,4.48200466 C16.5062869,4.67914333 16.3749706,4.7826087 16.226266,4.7826087 L16.2016512,4.7826087 C16.0366873,4.7826087 15.9125973,4.67914333 15.8546736,4.48200466 L14.7919489,1.28248285 L13.7195138,4.48200466 C13.6619289,4.67914333 13.5379519,4.7826087 13.3735525,4.7826087 L13.356277,4.7826087 C13.2000072,4.7826087 13.0682393,4.67914333 13.0022989,4.48200466" id="Fill-1" fill="#676666"></path>
                            <path d="M22.5,0.554158038 C22.5,0.372686048 22.6448363,0.217391304 22.8237242,0.217391304 C23.0119414,0.217391304 23.1566611,0.364078215 23.1566611,0.554158038 L23.1566611,1.31789688 C23.4806185,0.57597241 24.1989691,0.226117053 24.674993,0.226117053 C24.8718397,0.226117053 25,0.372686048 25,0.562058378 C25,0.743412453 24.8805859,0.872294119 24.7090447,0.898471366 C23.8557701,1.00200119 23.1566611,1.64900367 23.1566611,2.93463662 L23.1566611,4.44666737 C23.1566611,4.62790353 23.0202211,4.7826087 22.8327036,4.7826087 C22.6448363,4.7826087 22.5,4.63556804 22.5,4.44666737 L22.5,0.554158038" id="Fill-2" fill="#676666"></path>
                            <path d="M28.1253216,2.13431558 C28.0604773,1.30170132 27.6218444,0.575992439 26.7866766,0.575992439 C26.0566404,0.575992439 25.5048411,1.23956411 25.425172,2.13431558 L28.1253216,2.13431558 Z M26.884226,4.7826087 C25.7324187,4.7826087 24.7916667,3.81679084 24.7916667,2.40023351 L24.7916667,2.38188591 C24.7916667,1.06306016 25.6432436,0 26.8031989,0 C28.0435023,0 28.75,1.1063605 28.75,2.32011565 C28.75,2.50640498 28.6109185,2.63948627 28.4575781,2.63948627 L25.425172,2.63948627 C25.5136681,3.63074614 26.1538503,4.18875792 26.9008615,4.18875792 C27.4199556,4.18875792 27.800421,3.96724119 28.1090257,3.657289 C28.1573477,3.61349939 28.2143836,3.57814967 28.2878285,3.57814967 C28.4413953,3.57814967 28.5632755,3.71098632 28.5632755,3.87085511 C28.5632755,3.94999444 28.5312494,4.02986767 28.4657261,4.09127099 C28.0685121,4.50739464 27.5978532,4.7826087 26.884226,4.7826087 L26.884226,4.7826087 Z" id="Fill-3" fill="#676666"></path>
                            <g id="Group-7">
                                <mask id="mask-2" fill="white">
                                    <use xlink:href="#path-1"></use>
                                </mask>
                                <g id="Clip-5"></g>
                                <path d="M20.9679737,3.02440217 L20.9679737,2.58846739 C20.6514123,2.49245652 20.2268596,2.39596739 19.7034386,2.39596739 C18.8976667,2.39596739 18.4477982,2.76291304 18.4477982,3.32917391 L18.4477982,3.34651087 C18.4477982,3.91325 18.9467018,4.24456522 19.529193,4.24456522 C20.3186579,4.24456522 20.9679737,3.73880435 20.9679737,3.02440217 M17.7992807,3.37341304 L17.7992807,3.35559783 C17.7992807,2.40517391 18.547807,1.89917391 19.6367281,1.89917391 C20.1859211,1.89917391 20.5766053,1.9776087 20.9601053,2.09143478 L20.9601053,1.93396739 C20.9601053,1.12355435 20.484693,0.704478261 19.6789211,0.704478261 C19.2461579,0.704478261 18.9942544,0.762228261 18.6779211,0.909891304 C18.6366404,0.927586957 18.5947895,0.936554348 18.5621754,0.936554348 C18.4123333,0.936554348 18.2790263,0.805391304 18.2790263,0.648641304 C18.2790263,0.509467391 18.3368421,0.4235 18.4539561,0.369097826 C18.8772544,0.176478261 19.1966667,0.112271739 19.7452895,0.112271739 C20.3519561,0.112271739 20.8177895,0.277271739 21.1333246,0.609065217 C21.4246842,0.914195652 21.5746404,1.35025 21.5746404,1.92571739 L21.5746404,4.41375 C21.5746404,4.60505435 21.4415614,4.74482609 21.2660614,4.74482609 C21.0839474,4.74482609 20.9601053,4.60505435 20.9601053,4.43084783 L20.9601053,4.00053261 C20.660307,4.41088043 20.1607193,4.77686957 19.4053509,4.77686957 C18.6064211,4.77686957 17.7992807,4.29741304 17.7992807,3.37341304" id="Fill-4" fill="#676666" mask="url(#mask-2)"></path>
                                <path d="M1.1742193,0.394565217 C1.03327193,0.0707826087 0.685122807,-0.075923913 0.360236842,0.0758043478 C0.0348947368,0.227413043 -0.0849561404,0.605717391 0.0620350877,0.92973913 L1.42657895,4.0393913 C1.64130702,4.52709783 1.86766667,4.7826087 2.29199123,4.7826087 C2.74550877,4.7826087 2.94324561,4.50438043 3.15763158,4.0393913 C3.15763158,4.0393913 4.34792982,1.32203261 4.35990351,1.29381522 C4.37210526,1.26488043 4.41019298,1.17723913 4.53129825,1.17795652 C4.63381579,1.17891304 4.71991228,1.26440217 4.71991228,1.37906522 L4.71991228,4.037 C4.71991228,4.44663043 4.93669298,4.7826087 5.35349123,4.7826087 C5.76994737,4.7826087 5.9952807,4.44663043 5.9952807,4.037 L5.9952807,1.86258696 C5.9952807,1.44315217 6.28185088,1.1711413 6.67242105,1.1711413 C7.06299123,1.1711413 7.32299123,1.45271739 7.32299123,1.86258696 L7.32299123,4.037 C7.32299123,4.44663043 7.54045614,4.7826087 7.95657018,4.7826087 C8.37302632,4.7826087 8.59938596,4.44663043 8.59938596,4.037 L8.59938596,1.86258696 C8.59938596,1.44315217 8.88492982,1.1711413 9.27584211,1.1711413 C9.66584211,1.1711413 9.92675439,1.45271739 9.92675439,1.86258696 L9.92675439,4.037 C9.92675439,4.44663043 10.1439912,4.7826087 10.5604474,4.7826087 C10.9766754,4.7826087 11.2025789,4.44663043 11.2025789,4.037 L11.2025789,1.56223913 C11.2025789,0.652467391 10.5053684,0.015423913 9.66584211,0.015423913 C8.82745614,0.015423913 8.30232456,0.623652174 8.30232456,0.623652174 C8.0232807,0.244152174 7.63841228,0.0160217391 6.9875,0.0160217391 C6.30055263,0.0160217391 5.69913158,0.623652174 5.69913158,0.623652174 C5.41985965,0.244152174 4.94444737,0.0160217391 4.55079825,0.0160217391 C3.94196491,0.0160217391 3.45845614,0.29676087 3.16344737,1.00398913 L2.29199123,3.15783696 L1.1742193,0.394565217" id="Fill-6" fill="#676666" mask="url(#mask-2)"></path>
                            </g>
                            <path d="M29.8999428,0.760464201 L29.8999428,0.758842742 C29.8999428,0.516550462 29.7193709,0.317574298 29.4788317,0.317574298 C29.2401908,0.317574298 29.0569388,0.51979338 29.0569388,0.760464201 L29.0569388,0.763128026 C29.0569388,1.00507285 29.2381807,1.20381738 29.4788317,1.20381738 C29.7168025,1.20381738 29.8999428,1.00182993 29.8999428,0.760464201 M28.9583333,0.764054574 L28.9583333,0.760464201 C28.9583333,0.465590327 29.1889339,0.217391304 29.4788317,0.217391304 C29.7727496,0.217391304 30,0.463158139 30,0.757916194 L30,0.760464201 C30,1.0561488 29.7700695,1.30434783 29.4788317,1.30434783 C29.1849137,1.30434783 28.9583333,1.05950754 28.9583333,0.764054574" id="Fill-8" fill="#676666"></path>
                            <path d="M29.60952,0.83626783 C29.7164766,0.83626783 29.7757005,0.789808948 29.7757005,0.719388989 L29.7757005,0.716828263 C29.7757005,0.639457762 29.7124989,0.59848615 29.6057633,0.59848615 L29.3867674,0.59848615 L29.3867674,0.83626783 L29.60952,0.83626783 Z M29.1666667,0.526054192 C29.1666667,0.475022585 29.2152833,0.434782609 29.27738,0.434782609 L29.6214532,0.434782609 C29.7507292,0.434782609 29.8508353,0.4651455 29.912932,0.519469469 C29.9695041,0.565013806 30,0.630678131 30,0.707499905 L30,0.710243539 C30,0.840291827 29.9208875,0.919674327 29.8008928,0.961560484 L29.9524883,1.11520403 C29.9737028,1.13770184 29.9880668,1.15672437 29.9880668,1.18434363 C29.9880668,1.23500942 29.9367984,1.26811594 29.883983,1.26811594 C29.8351454,1.26811594 29.8022187,1.24781304 29.7757005,1.22165706 L29.5622293,0.997593554 L29.3867674,0.997593554 L29.3867674,1.17757599 C29.3867674,1.22824178 29.3392557,1.26811594 29.27738,1.26811594 C29.2152833,1.26811594 29.1666667,1.22824178 29.1666667,1.17757599 L29.1666667,0.526054192 L29.1666667,0.526054192 Z" id="Fill-9" fill="#676666"></path>
                        </g>
                    </g>
                </g>
            </g>
        </g>
    </g>
</svg>